<?xml version="1.0" standalone="no"?><!DOCTYPE svg PUBLIC "-//W3C//DTD SVG 1.1//EN" "http://www.w3.org/Graphics/SVG/1.1/DTD/svg11.dtd"><svg t="1538213734597" class="icon" style="" viewBox="0 0 1024 1024" version="1.1" xmlns="http://www.w3.org/2000/svg" p-id="2145" xmlns:xlink="http://www.w3.org/1999/xlink" width="200" height="200"><defs><style type="text/css"></style></defs><path d="M711.77191788 349.65690778c0-107.60197583-87.64564731-194.82164641-195.76053336-194.82164641-108.11364451 0-195.75184012 87.21967058-195.75184011 194.82164641 0 107.59576569 87.63695408 194.81419472 195.75184011 194.81419472C624.12627058 544.46986096 711.77191788 457.25143191 711.77191788 349.65690778L711.77191788 349.65690778M363.75512374 349.65690778c0-83.67524583 68.16373146-151.52974082 152.25626078-151.52974083 84.09128778 0 152.25626078 67.85573652 152.25626078 151.52974083 0 83.68269753-68.164973 151.5185633-152.25626078 151.51856329C431.9188552 501.17547107 363.75512374 433.3396053 363.75512374 349.65690778L363.75512374 349.65690778M864.02942142 349.65690778c0-191.26976997-155.80316982-346.3451783-348.0180369-346.34517831-192.21735136 0-348.01927843 155.07540711-348.01927842 346.34517831 0 191.25859245 348.01927843 606.0904005 348.01927842 606.0904005S864.02942142 540.91550022 864.02942142 349.65690778L864.02942142 349.65690778M516.01138452 46.59618338c168.17139803 0 304.52369908 135.67670014 304.5236991 303.0607244 0 167.37657257-304.52369908 541.15937302-304.5236991 541.15937302S211.49762021 517.02230282 211.49762021 349.65690778C211.49762021 182.27288352 347.84867973 46.59618338 516.01138452 46.59618338L516.01138452 46.59618338M669.85605469 816.99811055c-9.52548647 13.00533157-18.82245985 25.48408988-27.75431032 37.32326294 92.87659247 10.64693487 156.68120295 32.68719533 156.68120296 58.13402798 0 35.8565624-126.60575437 64.93847916-282.77032126 64.93847916-156.16705119 0-282.76162802-29.08315952-282.76162802-64.93847916 0-25.44807421 63.79467571-47.48709311 156.66878387-58.13402798-8.93060893-11.83917307-18.22634075-24.31917412-27.74437433-37.32326294-102.62189761 18.22882384-172.42868212 54.13506253-172.42868212 95.45853368 0 59.78453273 146.07525115 108.23162629 326.2659006 108.2316263 180.1894067 0 326.2659006-48.44709357 326.2659006-108.2316263 0-41.32222839-69.80678451-77.22970863-172.42868213-95.45853368L669.85605469 816.99811055M669.85605469 816.99811055L669.85605469 816.99811055z" p-id="2146"></path></svg>