<?xml version="1.0" standalone="no"?><!DOCTYPE svg PUBLIC "-//W3C//DTD SVG 1.1//EN" "http://www.w3.org/Graphics/SVG/1.1/DTD/svg11.dtd"><svg t="1550039780965" class="icon" style="" viewBox="0 0 1024 1024" version="1.1" xmlns="http://www.w3.org/2000/svg" p-id="1481" xmlns:xlink="http://www.w3.org/1999/xlink" width="200" height="200"><defs><style type="text/css"></style></defs><path d="M893.07970333 72.66607445H138.20207445c-53.39970333 0-97.09036999 43.69066667-97.09037112 97.09037v558.26963c0 53.39970333 43.69066667 97.09036999 97.09037112 97.09037h116.50844445c14.56355555 0 24.27259221-9.70903666 24.27259221-24.27259222s-9.70903666-24.27259221-24.27259221-24.27259335H138.20207445c-26.69985223 0-48.54518557-21.84533333-48.54518556-48.54518443v-558.26963c0-26.69985223 21.84533333-48.54518557 48.54518556-48.54518557h754.87762888c26.69985223 0 48.54518557 21.84533333 48.54518556 48.54518557v558.26963c0 26.69985223-21.84533333 48.54518557-48.54518556 48.54518443h-233.0168889-2.42725888-2.42725888c-4.8545189 0-12.13629667 2.42725888-16.99081557 4.8545189l-121.3629622 106.79940779-121.36296335-106.79940779c-4.8545189-4.8545189-9.70903666-7.28177778-16.99081443-7.28177778-7.28177778 0-12.13629667 2.42725888-16.99081557 7.28177778-9.70903666 9.70903666-7.28177778 24.27259221 2.42726002 33.98163001l135.92651776 121.3629622c4.8545189 4.8545189 9.70903666 7.28177778 16.99081557 7.28177778 4.8545189 0 12.13629667-2.42725888 16.99081443-7.28177778l131.072-116.50844444h230.58963001c53.39970333 0 97.09036999-43.69066667 97.09036999-97.09037v-558.26963c-2.42725888-48.54518557-46.11792555-92.23585223-99.51763-92.2358511z" p-id="1482"></path><path d="M300.82844445 429.47318557c-21.84533333 0-41.26340779 19.41807445-41.26340779 41.26340664 0 21.84533333 19.41807445 41.26340779 41.26340779 41.26340779 21.84533333 0 41.26340779-19.41807445 41.26340778-41.26340779 0-24.27259221-16.99081443-41.26340779-41.26340778-41.26340664zM514.42725888 429.47318557c-21.84533333 0-41.26340779 19.41807445-41.26340665 41.26340664 0 21.84533333 19.41807445 41.26340779 41.26340665 41.26340779s41.26340779-19.41807445 41.26340779-41.26340779c0-24.27259221-19.41807445-41.26340779-41.26340779-41.26340664zM728.02607445 429.47318557c-21.84533333 0-41.26340779 19.41807445-41.26340778 41.26340664 0 21.84533333 19.41807445 41.26340779 41.26340778 41.26340779 21.84533333 0 41.26340779-19.41807445 41.26340665-41.26340779 0-24.27259221-19.41807445-41.26340779-41.26340665-41.26340664z" p-id="1483"></path></svg>