<?xml version="1.0" standalone="no"?><!DOCTYPE svg PUBLIC "-//W3C//DTD SVG 1.1//EN" "http://www.w3.org/Graphics/SVG/1.1/DTD/svg11.dtd"><svg t="1538213821088" class="icon" style="" viewBox="0 0 1024 1024" version="1.1" xmlns="http://www.w3.org/2000/svg" p-id="3426" xmlns:xlink="http://www.w3.org/1999/xlink" width="200" height="200"><defs><style type="text/css"></style></defs><path d="M680.93611947 511.62124053l250.39838826 250.07093014L931.33450773 260.94669653 680.93611947 511.62124053zM124.33832 804.78345813l770.00762453 0c0.61562133 0 1.8293984 0 2.42428054 0L642.11925013 549.86614933l-69.107824 69.78675414 0 0c-8.48771093 8.50845013-18.80372907 15.1864096-29.099008 19.4411808-10.91090027 4.23293973-22.44069547 6.65831253-34.5642816 6.65831253l0 0c-11.51888 0-23.0464928-2.42537173-33.95848426-6.65831253-10.91199147-4.25367893-20.61129707-10.93273067-29.70480534-19.4411808l0 0-69.1187392-69.78675414L122.52092907 804.78345813C123.12563413 804.78345813 123.73143147 804.78345813 124.33832 804.78345813L124.33832 804.78345813zM87.9653792 260.94669653l0 500.74547414 249.79149867-250.07093014L87.9653792 260.94669653zM894.34594453 217.8543168L124.33832 217.8543168l0 0c-0.60688853 0-1.21268587 0-1.8184832 0l361.9611392 362.95879467 0 0c3.6369664 3.04099307 7.28484907 5.4663648 11.528704 7.27502506l0 0c4.2449472 1.8283072 9.09350827 3.04099307 13.3373632 3.04099307l0 0c4.84965227 0 9.08259307-1.21268587 13.3373632-3.04099307 4.23293973-1.8086592 7.8906464-4.234032 11.5276128-7.27502506l0 0 362.5582048-362.95879467C896.175344 217.8543168 894.96156587 217.8543168 894.34594453 217.8543168L894.34594453 217.8543168zM124.33832 162.6263456l770.00762453 0 0 0c25.46094933 0 48.4976192 10.31710933 64.87488427 26.7052896l0 0c16.37944853 16.99506987 26.67472747 40.0502944 26.67472747 64.9371008l0 514.10139307c0 25.48168853-10.29527893 47.9431232-26.67472747 64.93819306l0 0c-16.37726507 16.37617387-39.41284267 26.7129312-64.87488427 26.7129312L124.33832 860.02125333c-24.855152 0-47.8907296-10.33675733-64.86506027-26.7129312l0 0c-16.37726507-16.99506987-26.6834592-39.45650347-26.6834592-64.93819306l0 0L32.78980053 254.268736l0 0c0-24.8857152 10.30510293-47.942032 26.6834592-64.9371008C76.4475904 172.94345493 99.483168 162.6263456 124.33832 162.6263456L124.33832 162.6263456z" p-id="3427"></path></svg>