<?xml version="1.0" standalone="no"?><!DOCTYPE svg PUBLIC "-//W3C//DTD SVG 1.1//EN" "http://www.w3.org/Graphics/SVG/1.1/DTD/svg11.dtd"><svg t="1538213810336" class="icon" style="" viewBox="0 0 1024 1024" version="1.1" xmlns="http://www.w3.org/2000/svg" p-id="3311" xmlns:xlink="http://www.w3.org/1999/xlink" width="200" height="200"><defs><style type="text/css"></style></defs><path d="M89.1747904 333.7777184l844.99768533 0 0-37.09116587c0-9.72877653-4.26241173-19.46737707-10.93491306-25.54063146l0 0c-6.69105813-6.69214933-15.79111573-10.95346987-26.1267808-10.95346987l0 0L511.3740096 260.1924512l0 0c-62.56957973 0-89.89158293-28.57834987-114.20752107-52.904112-16.41001067-17.634704-31.58332267-32.83857813-57.09339093-32.83857813l0 0L125.61649813 174.44976107l0 0c-10.31492693 0-19.43572267 3.65443093-26.10713386 10.33566506-6.67031893 6.69214933-10.33566507 16.41983467-10.33566507 26.1584352L89.1736992 333.7777184zM923.23756267 837.9101984c6.67141013-6.69105813 10.93491307-15.81185493 10.93491306-26.14752l0-423.2503584L89.1747904 388.51232l0 423.2503584c0 10.33566507 3.66534613 19.45646187 10.33566507 26.14752l0 0c6.67141013 6.6932416 15.79220693 10.95346987 26.10713386 10.95346987l0 0 771.49428374 0 0 0C907.44644693 848.86366827 916.54650453 844.60344 923.23756267 837.9101984L923.23756267 837.9101984zM511.3740096 204.8586016l385.73786347 0c25.50897707 0 48.59039893 10.33675733 64.9982272 26.7555008 16.41001067 17.02781547 26.7249376 40.13870827 26.7249376 65.07245013l0 515.07721814c0 25.52971627-10.31492693 48.65152427-26.7249376 65.06153493-16.40782827 16.42965867-39.48925013 26.76532373-64.9982272 26.76532373l0 0L125.61649813 903.59062933l0 0c-25.48932907 0-47.97259413-10.33675733-64.9785792-26.76532373l0 0c-16.41001067-17.02781547-26.7238464-39.53291093-26.7238464-65.06153493l0 0 0-600.81990827 0 0c0-24.93374187 10.31383467-48.04354347 26.7238464-65.07135893l0 0c17.00598507-16.41983467 40.08631467-26.7555008 64.9785792-26.7555008l0 0 214.45659947 0 0 0c45.54394773 0 67.40831787 22.49308907 89.89158293 44.99818453C450.63601067 184.1763552 471.26586453 204.8586016 511.3740096 204.8586016L511.3740096 204.8586016z" p-id="3312"></path></svg>