<?xml version="1.0" standalone="no"?><!DOCTYPE svg PUBLIC "-//W3C//DTD SVG 1.1//EN" "http://www.w3.org/Graphics/SVG/1.1/DTD/svg11.dtd"><svg t="1538213751988" class="icon" style="" viewBox="0 0 1024 1024" version="1.1" xmlns="http://www.w3.org/2000/svg" p-id="2376" xmlns:xlink="http://www.w3.org/1999/xlink" width="200" height="200"><defs><style type="text/css"></style></defs><path d="M1011.32190493 512q0 163.18984078-95.2482543 293.54666667t-246.08507904 180.4190481q-17.55428523 3.25079381-25.68127033-4.55111111t-8.12698396-19.50476174l0-137.18349255q0-63.06539634-33.80825429-92.32253952 37.05904811-3.90095189 66.64127032-11.70285682t61.11492096-25.35619015 52.66285682-43.23555555 34.45841238-68.26666667 13.32825429-97.84888889q0-78.66920619-51.36253952-133.93269874 24.05587285-59.16444445-5.20127033-132.63238144-18.20444445-5.85142841-52.66285682 7.15174571t-59.81460366 28.60698396l-24.70603207 15.60380985q-60.46476174-16.90412715-124.83047652-16.90412714t-124.83047651 16.90412714q-10.40253952-7.15174571-27.63174571-17.55428522t-54.28825429-25.03111112-55.91365064-8.77714318q-28.60698397 73.46793699-4.5511111 132.63238144-51.36253952 55.26349255-51.36253952 133.93269874 0 55.26349255 13.32825429 97.52380985t34.13333333 68.26666667 52.33777778 43.56063459 61.11492096 25.35619015 66.64127033 11.70285682q-26.00634937 23.40571477-31.85777778 66.96634937-13.65333333 6.50158763-29.25714318 9.75238144t-37.05904811 3.25079381-42.58539634-13.97841237-36.08380984-40.63492096q-12.35301603-20.80507904-31.53269874-33.80825429t-32.18285682-15.60380986l-13.00317412-1.95047651q-13.65333333 0-18.85460366 2.92571477t-3.25079381 7.47682589 5.85142841 9.10222222 8.452063 7.80190493l4.55111111 3.25079381q14.30349255 6.50158763 28.28190493 24.70603207t20.48 33.15809508l6.50158762 14.95365062q8.45206301 24.70603207 28.60698397 39.98476175t43.56063459 19.50476174 45.18603208 4.55111111 36.08380984-2.27555556l14.95365064-2.60063459q0 24.70603207 3.25079381 57.86412715t3.25079381 35.10857159q0 11.70285682-8.452063 19.50476174t-26.00634937 4.55111111q-150.83682589-50.06222222-246.08507904-180.4190481t-95.24825429-293.54666667q0-135.88317411 66.96634936-250.63619015t181.71936541-181.71936541 250.63619015-66.96634937 250.63619015 66.96634937 181.71936541 181.71936541 66.96634936 250.63619015z" p-id="2377"></path></svg>