<?xml version="1.0" standalone="no"?><!DOCTYPE svg PUBLIC "-//W3C//DTD SVG 1.1//EN" "http://www.w3.org/Graphics/SVG/1.1/DTD/svg11.dtd"><svg t="1538212006374" class="icon" style="" viewBox="0 0 1024 1024" version="1.1" xmlns="http://www.w3.org/2000/svg" p-id="1328" xmlns:xlink="http://www.w3.org/1999/xlink" width="200" height="200"><defs><style type="text/css"></style></defs><path d="M936.77037037 668.80094815c0-10.67994075 2.91271111-20.87442963 8.00995555-29.61256297 1.45635555-2.66998518 3.39816297-5.09724446 5.09724445-7.5245037 42.23431111-63.10874075 66.99235555-138.5965037 66.99235555-219.1815111 0.72817779-223.7933037-188.11259259-405.3522963-421.61493333-405.3522963-203.64705185 0-373.5552 138.5965037-413.36225184 322.58275555-5.82542222 26.94257779-8.98085925 54.37060741-8.98085927 83.01226667 0 224.03602963 181.5589926 410.44954075 415.06133334 410.44954073 37.13706668 0 87.13860741-11.16539259 114.56663703-18.68989628 27.42802963-7.52450371 54.61333333-17.47626667 61.65238518-20.14625186 7.03905185-2.66998518 14.80628147-4.12634075 22.57351112-4.12634074 8.73813333 0 16.99081482 1.69908148 24.51531852 4.85451852l137.6256 48.78791111s5.82542222 2.42725925 9.46631111 2.42725925c10.67994075 0 19.41807408-8.49540741 19.41807407-19.41807407 0-2.42725926-1.21362963-6.5536-1.21362963-6.55359999L936.77037037 668.80094815z" fill="" p-id="1329"></path><path d="M663.7037037 843.32088889c-8.73813333 2.42725925-19.90352592 5.09724445-32.03982222 7.76722963-25.48622222 5.33997037-58.0114963 10.92266667-82.52681481 10.92266665-233.50234075 0-415.06133334-186.41351111-415.06133334-410.44954072 0-16.01991111 1.69908149-36.40888889 3.6408889-51.94334815 1.45635555-10.43721482 3.15543703-20.87442963 5.58269629-31.06891852 2.42725925-10.92266668 5.33997037-21.84533332 8.4954074-32.52527408l-19.41807407 17.23354075C52.76254815 422.67685925 7.13007408 521.70903703 7.13007408 624.86755555c0 71.1186963 20.6317037 139.56740741 60.19602962 199.03525927 5.5826963 8.49540741 8.73813333 15.04900741 7.76722963 19.41807407-0.9709037 4.36906667-28.88438518 150.49007408-28.88438518 150.49007409-1.45635555 7.03905185 1.21362963 14.0781037 6.5536 18.68989627 3.64088889 2.91271111 8.00995556 4.36906667 12.37902222 4.36906667 2.42725926 0 4.85451852-0.48545185 7.03905184-1.45635555l136.16924446-53.64242962c4.36906667-1.69908149 8.98085925-2.66998518 13.83537778-2.6699852 0 0 5.82542222-0.48545185 15.29173333 3.15543704 45.8752 17.96171852 96.60491852 29.12711111 147.33463704 29.12711111 113.11028149 0 219.42423703-48.78791112 291.51383703-133.74198518 0 0 7.76722963-10.67994075 16.7480889-23.30168889-8.98085925 3.15543703-19.17534815 6.31087408-29.36983705 8.98085926z" fill="" p-id="1330"></path></svg>