<?xml version="1.0" standalone="no"?><!DOCTYPE svg PUBLIC "-//W3C//DTD SVG 1.1//EN" "http://www.w3.org/Graphics/SVG/1.1/DTD/svg11.dtd"><svg t="1538213786524" class="icon" style="" viewBox="0 0 1024 1024" version="1.1" xmlns="http://www.w3.org/2000/svg" p-id="2964" xmlns:xlink="http://www.w3.org/1999/xlink" width="200" height="200"><defs><style type="text/css"></style></defs><path d="M767.37024 100.56795022c56.15479467 0 108.95633067 21.83600355 148.64964267 61.485056 39.69444978 39.58488178 61.53045333 92.207104 61.53045333 148.18360889 0 55.99857778-21.83600355 108.6208-62.10833067 148.804608L512.18875733 876.24612978 108.37629155 458.44218311c-39.67112533-39.583744-61.50712889-92.207104-61.50712888-148.20568178 0-55.97650489 21.83600355-108.59872711 61.50712888-148.204544 39.69444978-39.62800355 92.49609955-61.46400711 148.65078045-61.46400711 55.46496 0 107.6224 21.301248 147.13856 59.997184l72.969216 88.38564978c8.64142222 10.46129778 21.50274845 16.52553955 35.07484445 16.52553955l0 0c13.572096 0 26.45560889-6.06424178 35.0970311-16.52553955l72.92495645-88.38564978C659.74897778 121.870336 711.92735289 100.56795022 767.37024 100.56795022M767.37024 55.07720533c-65.41596445 0-130.83431822 24.92233955-180.76865422 74.76815645l-74.39177956 90.14146844-74.41396622-90.14146844c-49.91226311-49.84581689-115.351552-74.76815645-180.76865422-74.76815645-65.44042667 0-130.85764267 24.92233955-180.79197867 74.76815645-99.82555022 99.62518755-99.82555022 261.18166755 0 360.80685511l408.63004444 422.80220444c7.88650667 8.24069689 16.72590222 11.08457245 27.34455467 11.08457245 10.46129778 0 20.03592533-3.51038578 26.96704-10.75256889l408.986624-423.134208c99.84659911-99.62518755 99.84659911-261.18166755 0-360.80685511C898.24995555 79.99954489 832.80952889 55.07720533 767.37024 55.07720533L767.37024 55.07720533z" p-id="2965"></path></svg>