<?xml version="1.0" standalone="no"?><!DOCTYPE svg PUBLIC "-//W3C//DTD SVG 1.1//EN" "http://www.w3.org/Graphics/SVG/1.1/DTD/svg11.dtd"><svg t="1538219935959" class="icon" style="" viewBox="0 0 1024 1024" version="1.1" xmlns="http://www.w3.org/2000/svg" p-id="1241" xmlns:xlink="http://www.w3.org/1999/xlink" width="200" height="200"><defs><style type="text/css"></style></defs><path d="M980.05428907 785.08414293l0 78.0140544q0 15.8466048-11.5802112 27.426816t-27.426816 11.5802112l-858.1545984 0q-15.8466048 0-27.426816-11.5802112t-11.5802112-27.426816l0-78.0140544q0-15.8466048 11.5802112-27.426816t27.426816-11.5802112l858.1545984 0q15.8466048 0 27.426816 11.5802112t11.5802112 27.426816z m0-312.0562176l0 78.0140544q0 15.8466048-11.5802112 27.426816t-27.426816 11.5802112l-858.1545984 0q-15.8466048 0-27.426816-11.5802112t-11.5802112-27.426816l0-78.0140544q0-15.8466048 11.5802112-27.426816t27.426816-11.5802112l858.1545984 0q15.8466048 0 27.426816 11.5802112t11.5802112 27.426816z m0-312.0562176l0 78.0140544q0 15.8466048-11.5802112 27.426816t-27.426816 11.5802112l-858.1545984 0q-15.8466048 0-27.426816-11.5802112t-11.5802112-27.426816l0-78.0140544q0-15.8466048 11.5802112-27.426816t27.426816-11.5802112l858.1545984 0q15.8466048 0 27.426816 11.5802112t11.5802112 27.426816z" p-id="1242"></path></svg>