<?xml version="1.0" standalone="no"?><!DOCTYPE svg PUBLIC "-//W3C//DTD SVG 1.1//EN" "http://www.w3.org/Graphics/SVG/1.1/DTD/svg11.dtd"><svg t="1538213766517" class="icon" style="" viewBox="0 0 1024 1024" version="1.1" xmlns="http://www.w3.org/2000/svg" p-id="2606" xmlns:xlink="http://www.w3.org/1999/xlink" width="200" height="200"><defs><style type="text/css"></style></defs><path d="M776.969519 0 247.030481 0C211.282353 0 182.202618 29.081901 182.202618 64.83003l0 894.339941c0 35.745962 29.081901 64.83003 64.83003 64.83003L776.969519 1024c35.748128 0 64.83003-29.081901 64.83003-64.83003L841.799548 64.83003C841.797382 29.081901 812.717647 0 776.969519 0zM214.689103 162.943546l594.62396 0 0 677.206771L214.689103 840.150318 214.689103 162.943546zM247.030481 32.486485 776.969519 32.486485c17.832915 0 32.343545 14.508464 32.343545 32.343545l0 76.45586L214.689103 141.28589 214.689103 64.83003C214.689103 46.994949 229.197567 32.486485 247.030481 32.486485zM776.969519 991.511349 247.030481 991.511349c-17.832915 0-32.343545-14.508464-32.343545-32.343545l0-97.361996 594.62396 0 0 97.361996C809.310897 977.002885 794.802433 991.511349 776.969519 991.511349z" p-id="2607"></path><path d="M512.001083 876.164835c-29.335296 0-53.199868 23.866738-53.199868 53.202034s23.866738 53.199868 53.199868 53.199868 53.199868-23.866738 53.199868-53.199868-23.864572-53.202034-53.199868-53.202034zm0 84.744245c-17.393264 0-31.542211-14.151113-31.542211-31.542211 0-17.393264 14.148947-31.544377 31.542211-31.544377s31.542211 14.151113 31.542211 31.544377c0 17.391098-14.148947 31.542211-31.542211 31.542211z" p-id="2608"></path><path d="M438.36505 103.187906l147.272066 0c5.981845 0 10.828828-4.849149 10.828828-10.828828s-4.846984-10.828828-10.828828-10.828828l-147.272066 0c-5.981845 0-10.828828 4.849149-10.828828 10.828828s4.846984 10.828828 10.828828 10.828828z" p-id="2609"></path><path d="M399.387765 103.187906c2.837153 0 5.630991-1.147856 7.645153-3.162018 2.014162-2.03582 3.183676-4.808 3.183676-7.66681s-1.169513-5.630991-3.183676-7.66681c-2.016328-2.014162-4.810166-3.162018-7.645153-3.162018-2.858811 0-5.633157 1.147856-7.66681 3.162018-2.014162 2.014162-3.162018 4.808-3.162018 7.66681s1.147856 5.630991 3.162018 7.66681c2.014162 2.014162 4.808 3.162018 7.66681 3.162018z" p-id="2610"></path></svg>