<?xml version="1.0" standalone="no"?><!DOCTYPE svg PUBLIC "-//W3C//DTD SVG 1.1//EN" "http://www.w3.org/Graphics/SVG/1.1/DTD/svg11.dtd"><svg t="1539314320268" class="icon" style="" viewBox="0 0 1056 1024" version="1.1" xmlns="http://www.w3.org/2000/svg" p-id="1923" xmlns:xlink="http://www.w3.org/1999/xlink" width="206.25" height="200"><defs><style type="text/css"></style></defs><path d="M187.96088889 512l386.37112889 386.33472a36.29966222 36.29966222 0 0 1-0.18204445 51.33653333 36.19043555 36.19043555 0 0 1-51.33653333 0.14563556L110.62840889 537.55904a35.93557333 35.93557333 0 0 1-10.55857778-25.48622222c0-9.39349333 3.49525333-18.60494222 10.55857778-25.63185778L522.84984889 74.18311111a36.29966222 36.29966222 0 0 1 51.33653333 0.14563556 36.19043555 36.19043555 0 0 1 0.14563556 51.33653333L187.96088889 512z m327.68 0l386.37112889 386.33472a36.29966222 36.29966222 0 0 1-0.18204445 51.33653333 36.19043555 36.19043555 0 0 1-51.33653333 0.14563556L438.30840889 537.55904a35.93557333 35.93557333 0 0 1-10.55857778-25.48622222c0-9.39349333 3.49525333-18.60494222 10.55857778-25.63185778L850.52984889 74.18311111a36.29966222 36.29966222 0 0 1 51.33653333 0.14563556 36.19043555 36.19043555 0 0 1 0.14563556 51.33653333L515.64088889 512z" fill="#333333" p-id="1924"></path></svg>