<?xml version="1.0" standalone="no"?><!DOCTYPE svg PUBLIC "-//W3C//DTD SVG 1.1//EN" "http://www.w3.org/Graphics/SVG/1.1/DTD/svg11.dtd"><svg t="1538213689063" class="icon" style="" viewBox="0 0 1024 1024" version="1.1" xmlns="http://www.w3.org/2000/svg" p-id="1559" xmlns:xlink="http://www.w3.org/1999/xlink" width="200" height="200"><defs><style type="text/css"></style></defs><path d="M985.31555555 112.64H724.992c-55.86488889 0-110.47822222 16.04266667-157.46844445 46.30755555L512 194.56l-55.52355555-35.61244445C409.6 128.68266667 354.87288889 112.64 299.008 112.64H38.68444445c-20.13866667 0-36.40888889 16.27022222-36.4088889 36.40888889v646.25777778c0 20.13866667 16.27022222 36.40888889 36.4088889 36.40888888h260.32355555c55.86488889 0 110.47822222 16.04266667 157.46844445 46.30755556l50.51733333 32.54044444c1.47911111 0.91022222 3.18577778 1.47911111 4.89244444 1.47911112s3.41333333-0.45511111 4.89244445-1.47911112l50.51733333-32.54044444C614.4 847.75822222 669.12711111 831.71555555 724.992 831.71555555H985.31555555c20.13866667 0 36.40888889-16.27022222 36.4088889-36.40888888V149.04888889c0-20.13866667-16.27022222-36.40888889-36.4088889-36.40888889zM299.008 749.79555555H84.19555555V194.56h214.81244445c40.27733333 0 79.41688889 11.49155555 113.20888889 33.22311111l55.52355556 35.61244444 7.85066666 5.12v525.65333334c-54.15822222-29.12711111-114.688-44.37333333-176.58311111-44.37333334z m640.79644445 0H724.992c-61.89511111 0-122.42488889 15.24622222-176.58311111 44.37333334V268.51555555l7.85066666-5.12 55.52355556-35.61244444c33.792-21.73155555 72.93155555-33.22311111 113.20888889-33.22311111H939.80444445v555.23555555z" p-id="1560"></path><path d="M381.04177778 340.19555555H169.64266667c-4.43733333 0-8.07822222 3.86844445-8.07822222 8.53333334v51.2c0 4.66488889 3.64088889 8.53333333 8.07822222 8.53333333h211.28533333c4.43733333 0 8.07822222-3.86844445 8.07822222-8.53333333v-51.2c0.11377778-4.66488889-3.52711111-8.53333333-7.96444444-8.53333334zM634.88 348.72888889v51.2c0 4.66488889 3.64088889 8.53333333 8.07822222 8.53333333h211.28533333c4.43733333 0 8.07822222-3.86844445 8.07822223-8.53333333v-51.2c0-4.66488889-3.64088889-8.53333333-8.07822223-8.53333334H642.95822222c-4.43733333 0-8.07822222 3.86844445-8.07822222 8.53333334zM381.04177778 499.48444445H169.64266667c-4.43733333 0-8.07822222 3.86844445-8.07822222 8.53333333v51.2c0 4.66488889 3.64088889 8.53333333 8.07822222 8.53333333h211.28533333c4.43733333 0 8.07822222-3.86844445 8.07822222-8.53333333v-51.2c0.11377778-4.66488889-3.52711111-8.53333333-7.96444444-8.53333333zM854.35733333 499.48444445H642.95822222c-4.43733333 0-8.07822222 3.86844445-8.07822222 8.53333333v51.2c0 4.66488889 3.64088889 8.53333333 8.07822222 8.53333333h211.28533333c4.43733333 0 8.07822222-3.86844445 8.07822223-8.53333333v-51.2c0.11377778-4.66488889-3.52711111-8.53333333-7.96444445-8.53333333z" p-id="1561"></path></svg>