<?xml version="1.0" standalone="no"?><!DOCTYPE svg PUBLIC "-//W3C//DTD SVG 1.1//EN" "http://www.w3.org/Graphics/SVG/1.1/DTD/svg11.dtd"><svg t="1538219944100" class="icon" style="" viewBox="0 0 1024 1024" version="1.1" xmlns="http://www.w3.org/2000/svg" p-id="1356" xmlns:xlink="http://www.w3.org/1999/xlink" width="200" height="200"><defs><style type="text/css"></style></defs><path d="M912.71736889 985.57610667c-19.3536 0-38.13603555-7.96899555-51.22616889-21.63029334L666.25308445 769.27886222c-66.59527111 46.10503111-146.28408889 70.58090667-227.11068445 70.58090667-221.41838222 0-400.71736889-179.29898667-400.71736889-400.71736889 0-221.41952 179.29898667-400.71736889 400.71736889-400.71736889 221.41952 0 400.71736889 179.29784889 400.71736889 400.71736889 0 80.82659555-24.47587555 160.51427555-70.57976889 227.11068445l195.23584 195.23697777c13.09127111 13.09127111 21.06026667 31.87484445 21.06026667 51.22730667C985.57610667 952.56234667 952.56234667 985.57610667 912.71736889 985.57610667zM439.1424 184.14023111c-140.59178667 0-255.00216889 114.40924445-255.00216889 255.00216889 0 140.59178667 114.41038222 255.00216889 255.00216889 255.00216889 140.59292445 0 255.00216889-114.41038222 255.00216889-255.00216889C694.14456889 298.54947555 579.73532445 184.14023111 439.1424 184.14023111z" p-id="1357"></path></svg>