<?xml version="1.0" standalone="no"?><!DOCTYPE svg PUBLIC "-//W3C//DTD SVG 1.1//EN" "http://www.w3.org/Graphics/SVG/1.1/DTD/svg11.dtd"><svg t="1548491444358" class="icon" style="" viewBox="0 0 1024 1024" version="1.1" xmlns="http://www.w3.org/2000/svg" p-id="1514" xmlns:xlink="http://www.w3.org/1999/xlink" width="200" height="200"><defs><style type="text/css"></style></defs><path d="M229.50826667 294.69973333c-35.99146667 0-65.1904 29.21066667-65.1904 65.1904 0 36.01173333 29.19893333 65.23306667 65.1904 65.23306667 36.01066667 0 65.1904-29.22133333 65.1904-65.23306667 0-35.97973333-29.17866667-65.1904-65.1904-65.1904m0 86.92053334c-12.01066667 0-21.73013333-9.7088-21.73013334-21.73013334 0-11.98933333 9.7184-21.73013333 21.73013334-21.73013333s21.73013333 9.7408 21.73013333 21.73013333c0 12.02133333-9.71946667 21.73013333-21.73013333 21.73013334m260.7616 260.76053333c6.00533333 0 11.43786667-2.39786667 15.3632-6.38826667l43.46026666-43.4592a21.46666667 21.46666667 0 0 0 6.3648-15.30133333c0-12.032-9.71733333-21.77173333-21.728-21.77173333-5.984 0-11.4176 2.43946667-15.36533333 6.3872l-43.4592 43.46026666c-3.92533333 3.94666667-6.36586667 9.3376-6.36586667 15.34293334-0.00106667 12.032 9.7184 21.73013333 21.73013334 21.73013333m493.424-167.45386667L549.09333333 40.3264a21.59786667 21.59786667 0 0 0-15.36426666-6.38933333H229.50826667c-35.99146667 0-65.1904 29.21173333-65.1904 65.19146666 0 12.0224 9.71733333 21.73013333 21.728 21.73013334s21.7312-9.7088 21.7312-21.73013334c0-11.98933333 9.7184-21.73013333 21.73013333-21.73013333h295.22453333l412.87146667 412.91413333-49.82613333 49.8048c-3.92533333 3.936-6.36586667 9.34826667-6.36586667 15.344 0 12.032 9.7408 21.77066667 21.73013333 21.77066667 6.00533333 0 11.43786667-2.4384 15.3632-6.4288l65.1904-65.17973333a21.5968 21.5968 0 0 0 6.36693334-15.31093334c-0.00106667-6.03626667-2.44266667-11.44853333-6.368-15.3856M381.6192 707.5712c0 12.032 9.7184 21.73013333 21.73013333 21.73013333 6.00533333 0 11.43786667-2.39786667 15.3632-6.38826666l21.73013334-21.73013334a21.4688 21.4688 0 0 0 6.36693333-15.30026666c0-12.032-9.71946667-21.77173333-21.73013333-21.77173334a21.59466667 21.59466667 0 0 0-15.36426667 6.3872l-21.72906667 21.73013334c-3.9264 3.9488-6.368 9.3792-6.368 15.34293333m37.0944-536.86506667a21.5968 21.5968 0 0 0-15.3632-6.38826666H99.12746667c-35.99146667 0-65.1904 29.21066667-65.1904 65.1904v304.22186666c0 6.00533333 2.43946667 11.43786667 6.36586666 15.35253334l434.60266667 434.592c3.94666667 3.98933333 9.3792 6.3872 15.36213333 6.3872 6.00533333 0 11.43893333-2.39786667 15.36426667-6.38826667l347.68213333-347.68c3.94666667-3.904 6.36586667-9.3376 6.36586667-15.34293333s-2.43946667-11.39413333-6.36586667-15.34293334l-434.60266666-434.60266666z m71.55733334 766.92053334L77.39733333 524.74346667V229.50826667c0-11.98933333 9.71733333-21.728 21.728-21.728h295.22453334L807.22346667 620.65066667 490.26986667 937.62666667z m0-121.4048c6.00533333 0 11.43786667-2.39786667 15.3632-6.38826667l86.91946666-86.92053333a21.57973333 21.57973333 0 0 0 6.368-15.34293334c0-12.01066667-9.71946667-21.68746667-21.7312-21.68746666-6.00533333 0-11.43786667 2.39786667-15.3632 6.34453333l-86.92053333 86.92053333c-3.92533333 3.94666667-6.36586667 9.33653333-6.36586667 15.3856-0.00106667 11.98933333 9.7184 21.68853333 21.73013334 21.68853334" p-id="1515"></path></svg>