<?xml version="1.0" standalone="no"?><!DOCTYPE svg PUBLIC "-//W3C//DTD SVG 1.1//EN" "http://www.w3.org/Graphics/SVG/1.1/DTD/svg11.dtd"><svg t="1538213830418" class="icon" style="" viewBox="0 0 1024 1024" version="1.1" xmlns="http://www.w3.org/2000/svg" p-id="3541" xmlns:xlink="http://www.w3.org/1999/xlink" width="200" height="200"><defs><style type="text/css"></style></defs><path d="M1304.3087986 468.19496611" p-id="3542"></path><path d="M908.32795333 394.33037646l-345.71960197-349.53779034c-20.40995238-20.68763883-50.53892974-25.82483774-75.87781623-15.55043989-1.59669696 0.62479444-2.84628589 2.15206981-4.37356121 2.91570746-6.45620944 3.19339393-12.98184045 6.66447425-18.39672583 12.07935959-0.0694216 0.0694216-0.0694216 0.13884323-0.13884322 0.2082648-0.0694216 0.0694216-0.13884323 0.0694216-0.2082648 0.13884324l-347.59398532 346.62208281c-27.28269148 27.21326988-27.3521131 71.36541183-0.13884324 98.71752492 13.60663493 13.67605653 31.58683113 20.54879563 49.42818405 20.54879561 17.84135295 0 35.68270591-6.73389585 49.28934085-20.3405308l226.03675176-225.34253571 0 665.40610133c0 38.59841339 31.23972305 69.83813646 69.76871487 69.83813641 38.52899175 0 69.83813646-31.23972305 69.83813647-69.83813641l0-669.08544651 228.95245927 231.45163713c13.60663493 13.81489975 31.58683113 20.75706043 49.63644885 20.75706042 17.70250974 0 35.47444107-6.66447425 49.08107604-20.20168758C935.19411515 465.97347469 935.47180157 421.75191114 908.32795333 394.33037646L908.32795333 394.33037646zM1560.40510612 701.17387856" p-id="3543"></path></svg>