<?xml version="1.0" standalone="no"?><!DOCTYPE svg PUBLIC "-//W3C//DTD SVG 1.1//EN" "http://www.w3.org/Graphics/SVG/1.1/DTD/svg11.dtd"><svg t="1548674410654" class="icon" style="" viewBox="0 0 1024 1024" version="1.1" xmlns="http://www.w3.org/2000/svg" p-id="2061" xmlns:xlink="http://www.w3.org/1999/xlink" width="200" height="200"><defs><style type="text/css"></style></defs><path d="M834.15909091 82.45454545H189.84090909C130.56363636 82.45454545 82.45454545 130.56363636 82.45454545 189.84090909v644.31818182c0 59.27727273 48.10909091 107.38636364 107.38636364 107.38636364h644.31818182c59.27727273 0 107.38636364-48.10909091 107.38636364-107.38636364V189.84090909c0-59.27727273-48.10909091-107.38636364-107.38636364-107.38636364z m53.69318182 751.70454546c0 29.69018182-23.99870455 53.69318182-53.69318182 53.69318182H189.84090909c-29.63863636 0-53.69318182-24.003-53.69318182-53.69318182V189.84090909c0-29.63863636 24.05454545-53.69318182 53.69318182-53.69318182h644.31818182c29.69018182 0 53.69318182 24.05454545 53.69318182 53.69318182v644.31818182z" fill="#272536" p-id="2062"></path></svg>