<?xml version="1.0" standalone="no"?><!DOCTYPE svg PUBLIC "-//W3C//DTD SVG 1.1//EN" "http://www.w3.org/Graphics/SVG/1.1/DTD/svg11.dtd"><svg t="1538213793300" class="icon" style="" viewBox="0 0 1024 1024" version="1.1" xmlns="http://www.w3.org/2000/svg" p-id="3079" xmlns:xlink="http://www.w3.org/1999/xlink" width="200" height="200"><defs><style type="text/css"></style></defs><path d="M951.09971968 398.86032684c-13.67720665 0-24.84574618 11.09899127-25.0593547 24.88300339l0 0.14281994L926.04036377 866.99387199c0 27.5307658-22.27001511 49.86908521-49.83555384 49.8690852l-477.65282148 0L126.89556185 916.86295719c-27.63757007 0-49.97837377-22.33832061-49.97837377-49.8690852L76.91718808 143.95608754c0-27.67358574 22.3408037-49.93987501 49.97837377-49.93987501l482.66518952 0c13.74675369 0 24.77495637-11.24181243 24.77495638-25.06059745 0-13.74799645-11.02820269-24.91777753-24.77495638-24.91777752l-487.7495877 0c-52.26722341 0-94.79907647 42.42380724-94.79907647 94.90836503l0 244.41130067 0 0.07451444 0 488.50218856c0 52.41376919 42.53185305 94.90836502 94.79907647 94.90836503l759.47680411 0c52.34173785 0 94.8735909-42.49459583 94.8735909-94.90836503L976.16155868 423.74208868C976.01749599 409.95931933 964.84647337 398.86032684 951.09971968 398.86032684z" p-id="3080"></path><path d="M486.90552772 718.95391103l475.07957472-475.18265314c28.28212391-28.31938113 25.70142546-76.86831157-5.72895203-108.2999318l-44.96352263-44.96476418c-16.89873309-16.79192883-38.59374141-25.41826867-59.57340729-25.41826867-18.11705219 0-35.58582469 6.47782704-48.76378172 19.69055821L327.7380115 559.92921475 486.90552772 718.95391103zM838.39844231 120.07903627c10.66804717-10.67053147 29.06825614-9.59627506 41.10116818 2.29133273l44.82194425 44.92874851c11.88512351 11.99192898 13.03141125 30.35736383 2.29257428 40.92108982l-52.77144041 52.80621455-87.56740703-88.89501347L838.39844231 120.07903627zM836.53557058 298.36582973L483.25305717 651.68808467l-88.20947658-88.1448969 353.92458297-354.03387154L836.53557058 298.36582973z" p-id="3081"></path><path d="M327.59519157 560.78489403L278.68983145 739.68519426c-2.077723 7.9842703 0.14281994 16.21816479 5.79850028 21.94711681 5.72895201 5.65567913 14.10815075 7.91099619 21.83906978 5.76372615l179.0046202-48.76254019-36.58556545-36.73211123-116.21217075 31.72098594 31.64895459-116.24818521L327.59519157 560.78489403z" p-id="3082"></path></svg>